<?xml version="1.0" standalone="no"?>
<!DOCTYPE svg PUBLIC "-//W3C//DTD SVG 20010904//EN"
 "http://www.w3.org/TR/2001/REC-SVG-20010904/DTD/svg10.dtd">
<svg version="1.0" xmlns="http://www.w3.org/2000/svg"
 width="64.000000pt" height="64.000000pt" viewBox="0 0 64.000000 64.000000"
 preserveAspectRatio="xMidYMid meet">

<g transform="translate(0.000000,64.000000) scale(0.100000,-0.100000)"
fill="#000000" stroke="none">
<path d="M320 462 c-32 -5 -52 -21 -43 -35 3 -6 1 -7 -6 -3 -21 13 -51 -4 -51
-29 0 -14 -9 -29 -20 -35 -15 -8 -19 -17 -15 -30 4 -14 -2 -27 -19 -43 -24
-22 -24 -25 -10 -46 9 -12 14 -25 11 -27 -9 -10 27 -44 45 -44 10 0 18 -4 18
-10 0 -13 43 -13 57 1 20 20 43 -18 43 -71 l0 -49 -57 -4 c-32 -2 -8 -3 52 -3
61 0 91 1 68 3 l-43 4 0 62 c0 71 11 97 32 79 16 -13 75 4 99 28 27 28 22 75
-11 108 -17 17 -25 32 -19 34 23 8 -11 74 -45 88 -17 7 -38 16 -46 20 -8 3
-26 4 -40 2z"/>
</g>
</svg>
